<svg width="36" height="36" viewBox="0 0 36 36" fill="none" xmlns="http://www.w3.org/2000/svg">
<path fill-rule="evenodd" clip-rule="evenodd" d="M29.4782 12.237C29.4782 5.93709 24.313 0.782608 18 0.782608C11.6869 0.782608 6.52173 5.93709 6.52173 12.237C6.52173 15.9597 8.24347 19.2528 10.9696 21.2573L9.39129 33.5708C9.24782 34.1435 9.53477 34.7163 9.96521 35.0026C10.3956 35.289 10.9696 35.289 11.5435 35.0026L18 31.1368L24.4565 35.0026C24.6 35.1458 24.8869 35.1458 25.1739 35.1458C25.4609 35.1458 25.7478 35.0026 25.8913 34.8594C26.3217 34.5731 26.6087 34.0004 26.4652 33.4276L24.8869 21.2573C27.7565 19.2528 29.4782 15.9597 29.4782 12.237ZM9.39129 12.237C9.39129 7.51207 13.2652 3.64621 18 3.64621C22.7348 3.64621 26.6087 7.51207 26.6087 12.237C26.6087 16.9619 22.7348 20.8278 18 20.8278C13.2652 20.8278 9.39129 16.9619 9.39129 12.237ZM18.7174 28.2732L23.3087 30.9936L22.3043 22.8324C21.013 23.4051 19.5783 23.6914 18 23.6914C16.4217 23.6914 14.9869 23.4051 13.6956 22.8324L12.6913 30.9936L17.2826 28.2732C17.713 27.9868 18.2869 27.9868 18.7174 28.2732Z" fill="black"/>
<mask id="mask0" mask-type="alpha" maskUnits="userSpaceOnUse" x="6" y="0" width="24" height="36">
<path fill-rule="evenodd" clip-rule="evenodd" d="M29.4782 12.237C29.4782 5.93709 24.313 0.782608 18 0.782608C11.6869 0.782608 6.52173 5.93709 6.52173 12.237C6.52173 15.9597 8.24347 19.2528 10.9696 21.2573L9.39129 33.5708C9.24782 34.1435 9.53477 34.7163 9.96521 35.0026C10.3956 35.289 10.9696 35.289 11.5435 35.0026L18 31.1368L24.4565 35.0026C24.6 35.1458 24.8869 35.1458 25.1739 35.1458C25.4609 35.1458 25.7478 35.0026 25.8913 34.8594C26.3217 34.5731 26.6087 34.0004 26.4652 33.4276L24.8869 21.2573C27.7565 19.2528 29.4782 15.9597 29.4782 12.237ZM9.39129 12.237C9.39129 7.51207 13.2652 3.64621 18 3.64621C22.7348 3.64621 26.6087 7.51207 26.6087 12.237C26.6087 16.9619 22.7348 20.8278 18 20.8278C13.2652 20.8278 9.39129 16.9619 9.39129 12.237ZM18.7174 28.2732L23.3087 30.9936L22.3043 22.8324C21.013 23.4051 19.5783 23.6914 18 23.6914C16.4217 23.6914 14.9869 23.4051 13.6956 22.8324L12.6913 30.9936L17.2826 28.2732C17.713 27.9868 18.2869 27.9868 18.7174 28.2732Z" fill="white"/>
</mask>
<g mask="url(#mask0)">
<rect x="0.782715" y="0.782608" width="34.4348" height="34.4348" fill="#28C76F"/>
</g>
</svg>
