<svg width="24" height="24" viewBox="0 0 24 24" fill="none" xmlns="http://www.w3.org/2000/svg">
<path fill-rule="evenodd" clip-rule="evenodd" d="M19.771 4.2146C15.4536 -0.0947516 8.52398 -0.088337 4.21462 4.229C-0.0947319 8.54635 -0.088317 15.476 4.22902 19.7853C8.54637 24.0947 15.476 24.0883 19.7854 19.7709C24.0947 15.4536 24.0883 8.52396 19.771 4.2146ZM5.64193 18.3698C2.10312 14.8376 2.09789 9.18071 5.63015 5.64191C9.16241 2.1031 14.8193 2.09787 18.3581 5.63013C21.8969 9.16239 21.9021 14.8192 18.3698 18.358C14.8376 21.8968 9.18073 21.9021 5.64193 18.3698ZM12.9909 12.989L16.2436 12.986C16.8092 12.9855 17.2331 12.5608 17.2326 11.9951C17.2321 11.4294 16.8074 11.0056 16.2417 11.0061L12.989 11.0091L12.986 7.75642C12.9855 7.19074 12.5608 6.76686 11.9952 6.76739C11.4295 6.76791 11.0056 7.19257 11.0061 7.75825L11.0091 11.0109L7.75644 11.014C7.19076 11.0145 6.76688 11.4391 6.76741 12.0048C6.76767 12.2877 6.83858 12.4997 7.05091 12.7117C7.26323 12.9236 7.47543 12.9941 7.75827 12.9939L11.011 12.9908L11.014 16.2435C11.0142 16.5264 11.0851 16.7384 11.2975 16.9504C11.5098 17.1623 11.722 17.2328 12.0048 17.2326C12.5705 17.232 12.9944 16.8074 12.9939 16.2417L12.9909 12.989Z" fill="black"/>
<mask id="mask0" mask-type="alpha" maskUnits="userSpaceOnUse" x="0" y="0" width="24" height="24">
<path fill-rule="evenodd" clip-rule="evenodd" d="M19.7782 4.22184C15.4648 -0.0915122 8.53518 -0.0915122 4.22183 4.22184C-0.091526 8.53519 -0.0915257 15.4648 4.22183 19.7782C8.53518 24.0915 15.4648 24.0915 19.7782 19.7782C24.0915 15.4648 24.0915 8.53519 19.7782 4.22184ZM5.63604 18.364C2.10051 14.8284 2.10051 9.17159 5.63604 5.63605C9.17157 2.10052 14.8284 2.10052 18.364 5.63605C21.8995 9.17159 21.8995 14.8284 18.364 18.364C14.8284 21.8995 9.17157 21.8995 5.63604 18.364ZM12.9899 12.99H16.2426C16.8083 12.99 17.2326 12.5657 17.2326 12C17.2326 11.4343 16.8083 11.0101 16.2426 11.0101H12.9899V7.75737C12.9899 7.19169 12.5657 6.76742 12 6.76742C11.4343 6.76742 11.0101 7.19169 11.0101 7.75737V11.0101H7.75736C7.19167 11.0101 6.76741 11.4343 6.76741 12C6.76741 12.2829 6.83812 12.495 7.05025 12.7071C7.26238 12.9193 7.47452 12.99 7.75736 12.99H11.0101V16.2427C11.0101 16.5255 11.0808 16.7376 11.2929 16.9498C11.505 17.1619 11.7172 17.2326 12 17.2326C12.5657 17.2326 12.9899 16.8083 12.9899 16.2427V12.99Z" fill="white"/>
</mask>
<g mask="url(#mask0)">
<rect width="24" height="24" fill="#5D5FEF"/>
</g>
</svg>
