<svg width="24" height="25" viewBox="0 0 24 25" fill="none" xmlns="http://www.w3.org/2000/svg">
<path fill-rule="evenodd" clip-rule="evenodd" d="M19 2.1709H5C3.3 2.1709 2 3.50899 2 5.25881V19.6691C2 21.4189 3.3 22.757 5 22.757H19C20.7 22.757 22 21.4189 22 19.6691V5.25881C22 3.50899 20.7 2.1709 19 2.1709ZM20 19.6691C20 20.2866 19.6 20.6984 19 20.6984H5C4.4 20.6984 4 20.2866 4 19.6691V5.2588C4 4.64122 4.4 4.2295 5 4.2295H19C19.6 4.2295 20 4.64122 20 5.2588V19.6691ZM13.4 12.4639L15.7 10.0965C16.1 9.68483 16.1 9.06724 15.7 8.65552C15.3 8.2438 14.7 8.2438 14.3 8.65552L12 11.0229L9.7 8.65552C9.3 8.2438 8.7 8.2438 8.3 8.65552C7.9 9.06724 7.9 9.68483 8.3 10.0965L10.6 12.4639L8.3 14.8313C7.9 15.2431 7.9 15.8607 8.3 16.2724C8.5 16.4782 8.7 16.5812 9 16.5812C9.3 16.5812 9.5 16.4782 9.7 16.2724L12 13.905L14.3 16.2724C14.5 16.4782 14.7 16.5812 15 16.5812C15.3 16.5812 15.5 16.4782 15.7 16.2724C16.1 15.8607 16.1 15.2431 15.7 14.8313L13.4 12.4639Z" fill="black"/>
<mask id="mask0" mask-type="alpha" maskUnits="userSpaceOnUse" x="2" y="2" width="20" height="21">
<path fill-rule="evenodd" clip-rule="evenodd" d="M19 2.1709H5C3.3 2.1709 2 3.50899 2 5.25881V19.6691C2 21.4189 3.3 22.757 5 22.757H19C20.7 22.757 22 21.4189 22 19.6691V5.25881C22 3.50899 20.7 2.1709 19 2.1709ZM20 19.6691C20 20.2866 19.6 20.6984 19 20.6984H5C4.4 20.6984 4 20.2866 4 19.6691V5.2588C4 4.64122 4.4 4.2295 5 4.2295H19C19.6 4.2295 20 4.64122 20 5.2588V19.6691ZM13.4 12.4639L15.7 10.0965C16.1 9.68483 16.1 9.06724 15.7 8.65552C15.3 8.2438 14.7 8.2438 14.3 8.65552L12 11.0229L9.7 8.65552C9.3 8.2438 8.7 8.2438 8.3 8.65552C7.9 9.06724 7.9 9.68483 8.3 10.0965L10.6 12.4639L8.3 14.8313C7.9 15.2431 7.9 15.8607 8.3 16.2724C8.5 16.4782 8.7 16.5812 9 16.5812C9.3 16.5812 9.5 16.4782 9.7 16.2724L12 13.905L14.3 16.2724C14.5 16.4782 14.7 16.5812 15 16.5812C15.3 16.5812 15.5 16.4782 15.7 16.2724C16.1 15.8607 16.1 15.2431 15.7 14.8313L13.4 12.4639Z" fill="white"/>
</mask>
<g mask="url(#mask0)">
<rect y="0.112305" width="24" height="24.7033" fill="#EB5757"/>
</g>
</svg>
